<?xml version="1.0" standalone="no"?>
<!DOCTYPE svg PUBLIC "-//W3C//DTD SVG 20010904//EN"
 "http://www.w3.org/TR/2001/REC-SVG-20010904/DTD/svg10.dtd">
<svg version="1.0" xmlns="http://www.w3.org/2000/svg"
 width="724.000000pt" height="724.000000pt" viewBox="0 0 724.000000 724.000000"
 preserveAspectRatio="xMidYMid meet">
<metadata>
Created by potrace 1.11, written by Peter Selinger 2001-2013
</metadata>
<g transform="translate(0.000000,724.000000) scale(0.100000,-0.100000)"
fill="#000000" stroke="none">
<path d="M5190 5930 c-7 -4 -24 -6 -37 -4 -12 2 -23 1 -23 -4 0 -5 -16 -8 -35
-7 -19 1 -35 -2 -35 -8 0 -5 -7 -6 -15 -3 -9 3 -18 -1 -21 -8 -5 -12 -107 -70
-125 -71 -4 0 -25 -19 -49 -42 -23 -24 -46 -41 -50 -38 -8 5 -41 -25 -72 -63
-19 -23 -44 -31 -32 -9 4 6 -5 1 -20 -13 -14 -13 -24 -30 -22 -37 3 -7 2 -12
-2 -11 -18 3 -62 -23 -62 -37 0 -9 -4 -14 -9 -11 -5 3 -14 -1 -21 -9 -7 -8
-18 -15 -25 -15 -6 0 -20 -9 -31 -21 -12 -13 -27 -19 -42 -16 -17 3 -31 -5
-57 -35 -19 -23 -38 -37 -45 -33 -7 4 -10 0 -8 -11 2 -13 -4 -20 -20 -22 -13
-2 -26 -10 -29 -18 -3 -8 -13 -14 -22 -14 -9 0 -22 -9 -29 -20 -7 -11 -18 -20
-25 -20 -6 0 -25 -12 -42 -28 -16 -15 -42 -33 -57 -41 -16 -8 -28 -18 -28 -23
0 -4 -10 -8 -21 -8 -12 0 -35 -15 -52 -35 -16 -19 -35 -35 -42 -35 -6 0 -20
-9 -30 -20 -10 -11 -21 -18 -25 -15 -4 2 -16 -3 -26 -13 -10 -9 -28 -18 -39
-20 -11 -2 -24 -9 -30 -16 -5 -7 -20 -12 -32 -11 -12 1 -21 -1 -21 -4 3 -17
-15 -39 -28 -34 -8 3 -11 10 -8 17 3 6 -3 1 -14 -11 -22 -25 -37 -31 -27 -10
4 6 0 3 -9 -7 -8 -10 -13 -23 -9 -29 3 -6 1 -7 -6 -3 -7 4 -26 -5 -47 -23 -42
-38 -64 -38 -161 -6 -160 54 -499 130 -509 114 -3 -5 -15 -9 -27 -8 -20 1 -20
2 3 9 19 6 11 8 -33 9 -42 1 -56 -2 -51 -11 5 -7 2 -9 -8 -5 -9 3 -21 0 -28
-6 -10 -9 -11 -9 -6 1 10 17 -19 15 -38 -3 -16 -17 -30 -20 -21 -5 3 6 -1 7
-9 4 -9 -3 -13 -11 -9 -18 4 -6 -1 -5 -10 3 -14 11 -18 11 -23 -2 -3 -9 -13
-13 -26 -9 -13 3 -19 1 -15 -5 4 -6 -1 -10 -11 -10 -25 1 -157 -41 -236 -75
-38 -17 -77 -32 -85 -33 -9 -2 -17 -4 -18 -5 -2 -2 -7 -4 -13 -5 -5 -1 -11 -3
-12 -5 -2 -1 -15 -3 -30 -4 -15 -1 -39 -13 -54 -26 -15 -14 -23 -18 -19 -11 5
9 -5 5 -22 -7 l-31 -22 -122 40 c-108 36 -236 86 -355 139 -122 53 -361 179
-401 210 -14 11 -30 18 -35 15 -5 -3 -12 1 -15 10 -3 8 -12 12 -20 9 -8 -3
-14 0 -14 7 0 6 -5 8 -10 5 -6 -3 -10 -2 -10 3 0 5 -21 15 -47 23 -27 7 -76
26 -111 41 -74 34 -168 45 -230 29 -23 -7 -65 -31 -94 -54 -44 -36 -58 -57
-99 -149 -51 -114 -99 -303 -99 -385 0 -62 36 -136 90 -187 25 -24 40 -46 37
-56 -2 -9 4 -22 14 -29 21 -12 27 -37 7 -25 -7 4 -2 -5 11 -19 30 -33 42 -36
15 -4 -17 20 -16 20 9 -2 27 -24 36 -38 17 -26 -6 3 -10 2 -10 -4 0 -14 71
-61 163 -107 65 -32 84 -48 113 -91 19 -28 34 -56 34 -61 0 -18 82 -84 134
-108 28 -13 68 -27 90 -31 29 -4 43 -13 55 -36 9 -16 33 -56 54 -89 42 -66 80
-89 187 -111 l61 -12 24 -59 c43 -106 119 -161 263 -191 50 -11 71 -21 88 -42
27 -32 50 -77 59 -113 12 -51 -54 -102 -149 -115 -49 -6 -50 -5 -91 39 -23 26
-52 47 -63 47 -12 1 -30 2 -39 2 -10 1 -46 -5 -80 -12 -62 -13 -63 -13 -98 13
-62 48 -143 73 -197 61 -15 -4 -26 -11 -23 -16 4 -5 -1 -6 -10 -3 -8 4 -27 -1
-41 -11 -25 -16 -27 -16 -77 17 -66 44 -112 62 -137 55 -13 -3 -18 -1 -13 5 4
8 -5 9 -27 5 -18 -4 -37 -7 -42 -7 -5 0 -7 -4 -4 -8 3 -5 -22 4 -54 20 -66 31
-140 51 -140 37 0 -5 -8 -9 -17 -9 -16 0 -16 2 -3 10 11 8 7 9 -15 4 -41 -9
-45 -12 -45 -34 0 -25 15 -33 69 -36 50 -3 141 -37 141 -53 0 -16 49 -25 64
-11 23 19 89 14 132 -9 l39 -22 -38 6 c-21 3 -45 9 -52 11 -8 3 -21 -3 -31
-14 -15 -18 -19 -18 -31 -6 -8 8 -23 14 -34 14 -38 0 -109 22 -103 32 4 6 -2
7 -16 3 -15 -5 -20 -4 -16 4 4 6 0 11 -9 11 -9 0 -13 -4 -10 -10 3 -6 -1 -7
-9 -4 -9 3 -16 10 -16 14 0 5 -26 7 -58 4 -40 -3 -51 -2 -37 5 l20 10 -20 1
c-110 11 -131 -76 -57 -227 14 -29 28 -53 32 -53 4 0 27 -18 51 -40 64 -58 80
-51 35 15 -33 47 -86 178 -86 209 0 14 4 27 9 30 5 3 60 -2 123 -13 62 -10
133 -22 157 -25 25 -4 98 -22 163 -41 195 -57 432 -87 703 -89 131 -1 171 2
223 18 36 11 66 26 70 35 3 9 16 29 29 44 27 34 30 57 6 57 -15 0 -15 1 1 13
17 13 17 15 2 45 -53 103 -190 251 -346 377 -41 33 -120 98 -175 145 -127 109
-230 191 -325 260 -99 72 -125 93 -298 238 -81 68 -183 147 -227 176 -105 70
-126 94 -133 152 -6 58 15 206 33 231 13 17 14 17 9 -3 -3 -12 0 -25 7 -29 8
-6 10 -4 4 6 -5 8 -4 11 1 6 4 -4 9 -18 9 -30 0 -13 6 -21 13 -19 8 1 11 -2 7
-8 -8 -13 33 -72 45 -65 5 3 15 -1 23 -9 8 -8 17 -12 21 -9 5 6 10 -11 8 -28
-1 -4 25 -6 56 -6 32 0 63 -3 70 -7 7 -4 12 -4 12 1 0 4 20 8 44 8 25 0 42 -3
40 -7 -8 -13 11 -9 25 5 11 10 13 9 7 -3 -5 -9 -2 -9 7 2 8 10 17 15 20 11 4
-3 7 -1 7 5 0 7 7 12 15 12 8 0 15 4 15 9 0 9 45 5 62 -5 4 -3 5 1 3 8 -4 9 4
14 21 16 15 1 34 8 42 14 8 7 27 11 43 10 16 -2 29 1 29 6 0 5 8 12 18 16 9 3
23 9 31 12 9 5 11 3 6 -6 -5 -8 -4 -11 3 -7 8 6 10 42 2 42 -1 0 -3 8 -5 18
-2 9 1 17 6 17 15 0 10 26 -10 52 -13 16 -17 29 -11 38 11 18 -6 41 -25 34 -7
-3 -22 10 -35 30 -12 20 -36 47 -53 61 l-32 25 30 -9 c37 -10 99 -41 168 -84
47 -29 96 -54 367 -180 126 -59 344 -137 384 -137 50 0 123 19 137 36 6 8 18
14 25 14 7 0 37 11 66 24 112 50 409 133 508 141 54 5 87 3 120 -8 45 -15 75
-22 140 -32 84 -13 140 -27 135 -34 -2 -5 7 -7 20 -5 14 1 23 -1 20 -6 -7 -12
81 -44 96 -35 7 5 10 4 6 -2 -8 -13 68 -47 84 -38 7 5 10 4 6 -2 -4 -6 38 -29
96 -53 148 -63 347 -169 498 -265 37 -24 115 -69 173 -100 58 -31 103 -61 100
-67 -3 -5 -9 -7 -12 -4 -3 3 -13 -1 -21 -9 -9 -8 -43 -21 -75 -29 -32 -9 -63
-20 -70 -25 -6 -5 -33 -21 -61 -36 -58 -31 -153 -120 -197 -184 -22 -31 -32
-58 -34 -92 -1 -26 -8 -58 -15 -71 -7 -13 -13 -63 -13 -120 -1 -54 -5 -98 -10
-98 -4 0 -1 -12 9 -26 9 -15 11 -23 4 -19 -9 6 -10 2 -5 -16 17 -54 33 -139
28 -144 -3 -3 0 -5 6 -5 6 0 9 -9 7 -20 -5 -26 24 -82 37 -74 7 5 8 2 4 -5 -5
-7 -1 -18 7 -24 8 -7 18 -22 21 -34 5 -16 2 -23 -14 -28 -24 -8 -25 -18 -3
-36 12 -10 17 -11 20 -2 3 7 21 -1 50 -23 25 -19 60 -42 77 -51 37 -19 167
-117 215 -162 18 -17 37 -31 41 -31 4 0 15 -11 24 -25 9 -14 22 -25 29 -25 17
0 77 -67 68 -76 -3 -4 -1 -4 6 -1 7 4 31 -16 60 -50 93 -109 229 -240 293
-283 76 -51 83 -59 67 -79 -22 -26 -200 -137 -302 -188 -268 -134 -398 -145
-720 -61 -22 6 -58 12 -80 15 l-40 5 -2 -79 c-2 -87 -16 -160 -38 -203 -29
-56 -130 -169 -267 -298 -175 -165 -272 -225 -317 -198 -10 7 -12 6 -6 -4 6
-10 4 -12 -9 -7 -10 4 -22 7 -27 7 -6 0 -7 5 -4 10 3 6 0 10 -8 10 -17 0 -40
54 -61 142 -29 123 -95 261 -202 419 -31 46 -80 118 -107 159 -27 41 -62 86
-76 99 -14 13 -19 20 -11 15 8 -4 -2 9 -23 30 -22 22 -44 35 -53 32 -8 -3 -14
1 -14 9 0 8 -9 19 -21 25 -18 10 -25 7 -55 -29 -52 -60 -130 -101 -193 -101
-46 0 -52 2 -46 18 3 11 -1 32 -10 48 -8 16 -15 37 -15 46 0 51 -90 210 -139
246 -16 11 -42 24 -57 28 -49 11 -344 101 -452 139 -97 33 -218 69 -271 81
-14 3 -50 14 -82 24 -79 27 -139 39 -139 29 0 -12 34 -29 62 -30 16 -1 12 -4
-12 -9 -42 -8 -45 -6 139 -65 79 -25 151 -50 160 -54 20 -11 189 -67 331 -111
103 -31 199 -62 252 -82 47 -17 158 -198 161 -262 1 -17 -2 -41 -6 -52 -10
-27 5 -34 93 -41 50 -4 84 0 145 17 44 12 87 28 96 36 30 27 34 22 130 -136
18 -30 53 -81 78 -113 89 -118 174 -255 231 -372 64 -131 85 -189 104 -279 16
-81 27 -86 124 -53 126 43 161 61 329 169 121 78 219 183 267 284 20 41 36 79
36 84 0 6 7 10 15 10 17 0 21 -79 6 -142 -5 -21 -8 -38 -6 -38 2 0 15 20 30
45 14 25 30 43 35 40 5 -3 20 -29 34 -58 40 -84 132 -157 231 -183 102 -28
357 -12 525 31 133 35 219 66 362 134 76 36 85 45 67 68 -11 13 -10 17 4 28
15 11 14 15 -17 46 -18 19 -50 53 -70 76 l-38 43 72 -30 c195 -80 334 -59 455
71 55 60 194 264 252 369 72 132 128 228 154 267 16 23 29 45 29 48 0 4 14 27
30 52 17 24 27 49 24 55 -4 7 -2 8 4 4 13 -8 35 28 24 39 -4 5 -2 5 4 2 10 -6
64 51 64 68 0 3 -8 15 -18 25 -19 20 -41 19 -211 -15 -13 -2 -22 -2 -19 0 7 7
132 89 138 90 33 8 88 39 83 48 -3 5 -1 7 5 4 14 -9 43 3 36 14 -3 5 1 6 8 4
8 -3 24 4 36 15 12 11 22 18 22 15 0 -3 10 3 22 14 11 11 24 18 28 16 4 -2 20
8 36 23 16 15 33 27 37 27 10 0 135 108 238 204 77 73 92 95 67 104 -7 2 -10
8 -5 12 4 5 13 1 20 -9 12 -16 15 -15 39 12 15 17 24 33 21 36 -4 3 -1 6 5 6
7 0 12 5 12 11 0 6 -9 9 -20 6 -12 -3 -18 -1 -14 5 3 5 16 7 27 4 24 -6 47 9
47 31 0 9 -6 13 -15 9 -8 -3 -15 -1 -15 4 0 16 20 22 34 11 10 -8 17 -7 26 4
7 8 9 15 5 15 -5 0 3 9 16 20 20 18 21 24 11 40 -10 17 -10 20 4 20 8 0 12 -5
9 -10 -13 -20 7 -9 30 18 48 54 107 152 101 168 -3 8 -10 13 -15 10 -5 -4 -7
4 -3 16 l5 22 10 -22 c11 -24 33 -31 24 -7 -4 8 -1 17 4 21 12 7 42 70 45 94
8 55 13 85 14 85 1 0 4 20 7 45 12 90 5 204 -16 250 -27 60 -65 118 -99 153
-35 36 -198 124 -209 113 -3 -3 -18 1 -33 9 -47 24 -161 46 -264 51 -82 3 -97
1 -93 -11 6 -14 0 -14 -38 1 -27 11 -75 12 -75 1 0 -4 -21 -8 -47 -7 -48 1
-89 -4 -153 -16 -36 -8 -54 -10 -131 -17 -25 -3 -61 -8 -80 -12 -30 -7 -186
-29 -279 -39 -127 -14 -335 -66 -350 -87 -4 -5 -18 -5 -62 0 -12 2 16 61 29
61 8 0 18 11 23 25 5 14 25 49 45 77 19 29 35 58 35 64 0 7 14 42 30 79 17 37
30 77 30 90 0 13 5 27 10 30 6 4 10 12 9 18 -1 7 3 24 9 40 7 15 14 39 16 53
3 14 9 31 14 37 10 13 21 62 27 117 2 19 8 47 13 61 6 15 8 37 5 49 -4 15 0
26 11 32 12 7 15 16 10 31 -9 30 -7 89 4 96 5 3 9 20 8 36 -1 17 3 36 8 43 5
8 4 12 -5 12 -9 0 -10 3 -2 11 8 8 8 20 1 40 -7 20 -7 39 0 58 6 16 7 32 4 36
-4 3 -8 18 -9 33 -4 44 -9 62 -21 74 -7 7 -12 18 -12 25 0 7 -4 13 -10 13 -5
0 -9 5 -7 11 3 18 -62 54 -75 41 -7 -7 -17 -8 -28 -2 -9 5 -22 5 -30 0z m825
-1250 c3 -5 -1 -10 -10 -10 -9 0 -13 5 -10 10 3 6 8 10 10 10 2 0 7 -4 10 -10z
m-45 -10 c0 -5 -4 -10 -10 -10 -5 0 -10 5 -10 10 0 6 5 10 10 10 6 0 10 -4 10
-10z m-960 -135 c0 -8 -4 -15 -10 -15 -5 0 -7 7 -4 15 4 8 8 15 10 15 2 0 4
-7 4 -15z m-36 -3 c9 -15 -12 -35 -32 -29 -12 2 -23 0 -25 -7 -3 -8 -8 -8 -18
1 -15 15 -10 21 19 26 12 2 25 6 28 10 10 9 22 9 28 -1z m-604 -12 c24 -15 7
-19 -20 -5 -15 8 -19 14 -10 14 8 1 22 -3 30 -9z m-3681 -22 c33 -20 143 -100
166 -120 16 -15 -46 11 -95 39 -51 29 -136 103 -118 103 6 0 27 -10 47 -22z
m3761 -4 c0 -2 -14 -4 -31 -4 -16 0 -28 4 -25 9 5 8 56 3 56 -5z m314 -5 c-4
-8 0 -9 15 -4 11 3 21 2 21 -3 0 -5 -6 -9 -12 -9 -7 0 -21 -4 -30 -8 -13 -5
-18 -3 -18 8 0 13 9 21 28 26 2 1 0 -4 -4 -10z m-94 -28 c0 -18 -3 -19 -30
-10 -34 12 -31 29 6 29 17 0 24 -5 24 -19z m-3536 -291 c3 0 19 -11 34 -25 16
-14 37 -32 48 -40 27 -20 4 -18 -60 6 -38 14 -68 34 -95 65 -63 71 -59 90 9
38 32 -24 61 -44 64 -44z m5818 -52 c-9 -9 -12 -7 -12 12 0 19 3 21 12 12 9
-9 9 -15 0 -24z m-2 -42 c0 -3 -4 -8 -10 -11 -5 -3 -10 -1 -10 4 0 6 5 11 10
11 6 0 10 -2 10 -4z m-5552 -103 c25 -27 39 -39 31 -28 -16 22 59 -33 81 -60
34 -41 -66 -30 -112 12 -19 17 -68 99 -68 114 0 20 25 6 68 -38z m5532 17 c0
-5 -2 -10 -4 -10 -3 0 -8 5 -11 10 -3 6 -1 10 4 10 6 0 11 -4 11 -10z m-95
-180 c3 -5 2 -10 -4 -10 -5 0 -13 5 -16 10 -3 6 -2 10 4 10 5 0 13 -4 16 -10z
m-5140 -100 c-2 -4 14 -24 35 -45 22 -22 40 -36 40 -31 0 4 5 4 11 0 7 -4 7
-10 1 -16 -14 -14 -86 25 -111 61 -21 30 -26 52 -14 64 8 9 44 -23 38 -33z
m4778 -336 c1 -4 -8 -9 -20 -10 -27 -5 -30 11 -5 25 16 9 20 7 25 -15z m-5160
9 c-7 -2 -21 -2 -30 0 -10 3 -4 5 12 5 17 0 24 -2 18 -5z m53 -75 c24 -12 54
-32 66 -45 l21 -23 -72 0 c-86 0 -164 17 -154 34 4 6 0 5 -9 -2 -9 -7 -19 -9
-22 -4 -7 11 81 61 108 62 10 0 38 -10 62 -22z m5014 2 c0 -5 -5 -10 -11 -10
-5 0 -7 5 -4 10 3 6 8 10 11 10 2 0 4 -4 4 -10z m-4686 -60 c7 -7 -11 -10 -52
-10 -66 0 -76 5 -39 20 25 11 76 5 91 -10z m4636 11 c0 -5 -7 -12 -16 -15 -24
-9 -28 -7 -14 9 14 17 30 20 30 6z m-230 -155 c0 -3 -4 -8 -10 -11 -5 -3 -10
-1 -10 4 0 6 5 11 10 11 6 0 10 -2 10 -4z m-160 -306 c0 -5 -5 -10 -11 -10 -5
0 -7 5 -4 10 3 6 8 10 11 10 2 0 4 -4 4 -10z m-593 -317 c-9 -9 -20 -13 -24
-9 -4 4 1 14 11 22 25 18 35 8 13 -13z m-297 -77 c0 -11 -19 -15 -25 -6 -3 5
1 10 9 10 9 0 16 -2 16 -4z m65 -16 c-3 -5 -12 -10 -20 -10 -8 0 -17 5 -20 10
-4 6 5 10 20 10 15 0 24 -4 20 -10z m-2035 -1035 c0 -8 -4 -15 -10 -15 -5 0
-10 7 -10 15 0 8 5 15 10 15 6 0 10 -7 10 -15z"/>
<path d="M1460 3916 c0 -2 8 -10 18 -17 15 -13 16 -12 3 4 -13 16 -21 21 -21
13z"/>
<path d="M1660 3736 c0 -2 8 -10 18 -17 15 -13 16 -12 3 4 -13 16 -21 21 -21
13z"/>
<path d="M4619 5623 c-13 -16 -12 -17 4 -4 9 7 17 15 17 17 0 8 -8 3 -21 -13z"/>
<path d="M1240 5126 c0 -2 8 -10 18 -17 15 -13 16 -12 3 4 -13 16 -21 21 -21
13z"/>
<path d="M3035 4857 c-46 -28 -46 -27 -31 -48 7 -11 12 -29 9 -39 -5 -20 32
-39 48 -23 5 5 24 7 42 5 28 -4 29 -6 12 -13 -14 -6 -9 -8 20 -6 35 2 40 5 38
25 -2 13 4 25 12 28 11 5 12 11 5 25 -22 39 -118 68 -155 46z"/>
<path d="M2575 4605 c-121 -26 -139 -33 -170 -72 -25 -31 -30 -47 -30 -90 0
-28 3 -49 8 -46 4 2 7 -1 7 -6 0 -6 -4 -11 -9 -11 -5 0 -4 -13 2 -29 6 -17 14
-28 18 -25 4 2 6 -4 4 -13 -4 -26 34 -95 47 -87 6 4 8 3 4 -4 -3 -5 0 -13 6
-15 10 -4 10 -6 0 -6 -10 -1 -10 -6 -2 -21 6 -11 16 -17 22 -14 8 5 9 1 4 -11
-4 -11 0 -25 11 -37 10 -11 17 -23 17 -27 -5 -27 72 -188 110 -229 51 -55 59
-59 136 -66 77 -7 93 -17 166 -105 65 -80 197 -191 225 -191 19 0 19 1 2 26
-25 39 -72 83 -75 72 -2 -6 -16 7 -30 28 -54 79 -154 190 -188 206 -20 10 -57
18 -87 18 -86 0 -134 54 -193 215 -18 50 -45 118 -61 153 -16 35 -29 68 -29
73 0 5 -15 40 -33 77 -18 37 -32 73 -31 80 1 6 2 16 3 21 1 11 51 67 51 58 0
-3 14 -1 32 4 174 49 407 -10 533 -136 68 -67 189 -231 244 -330 l44 -80 0
-120 c0 -105 -3 -128 -26 -190 -25 -66 -25 -71 -9 -83 15 -11 20 -9 39 14 41
52 67 142 71 246 4 98 -12 208 -29 208 -6 0 -7 5 -4 10 3 6 1 10 -5 10 -6 0
-9 4 -5 9 3 5 -6 21 -19 36 -13 14 -46 59 -73 98 -127 190 -200 267 -304 322
-112 59 -279 84 -394 60z"/>
<path d="M2580 4481 c0 -7 -7 -11 -16 -9 -11 2 -17 -6 -20 -25 -1 -16 -9 -36
-16 -44 -10 -13 -10 -17 0 -20 6 -3 9 -10 6 -15 -5 -7 -2 -8 6 -3 10 6 12 3 8
-13 -4 -12 -2 -20 2 -17 5 3 14 -4 20 -15 8 -14 8 -20 0 -20 -8 0 -8 -6 0 -20
6 -11 16 -17 22 -14 7 4 8 2 4 -5 -9 -14 29 -101 44 -101 6 0 10 -5 10 -11 0
-5 -5 -7 -12 -3 -7 4 -8 3 -4 -5 4 -6 12 -8 18 -5 7 5 9 -2 6 -19 -3 -16 -1
-24 5 -20 6 4 8 -2 5 -15 -4 -12 -2 -22 3 -22 4 0 6 -7 2 -17 -5 -12 -2 -15
13 -11 14 4 20 0 20 -13 0 -10 -5 -15 -11 -12 -5 3 -4 0 3 -8 8 -8 36 -15 70
-16 66 -2 112 -17 112 -36 0 -8 10 -22 23 -33 l22 -19 -20 24 c-11 13 -15 22
-8 20 20 -7 113 -119 113 -137 0 -14 2 -15 10 -2 8 12 10 12 16 -3 3 -9 9 -15
14 -12 4 2 6 -7 4 -20 -2 -23 8 -36 31 -42 21 -5 85 -30 91 -35 3 -4 19 -2 35
4 17 6 28 13 24 16 -3 3 2 13 11 23 9 10 14 25 11 34 -4 8 -3 15 1 15 4 0 7
23 6 50 -2 28 1 48 4 46 4 -2 8 14 8 36 1 38 0 39 -14 22 -13 -18 -14 -18 -7
5 5 16 4 21 -4 17 -6 -4 -11 -3 -11 2 0 15 13 22 25 14 6 -4 4 0 -5 9 -33 33
-64 72 -52 65 16 -9 16 16 0 32 -7 7 -8 12 -3 12 4 0 -2 9 -14 19 -16 14 -18
21 -9 24 10 4 10 6 0 6 -7 1 -17 13 -22 27 -6 15 -15 23 -22 19 -7 -4 -4 1 6
9 18 15 15 21 -9 16 -5 -1 -7 2 -2 6 4 4 -3 19 -15 32 -13 14 -16 22 -8 17 8
-4 2 6 -14 23 -34 37 -49 43 -20 10 17 -21 17 -21 -8 1 -15 13 -25 28 -22 32
3 5 -2 9 -11 9 -8 0 -20 12 -25 26 -6 14 -14 23 -18 20 -5 -3 -21 1 -36 9 -15
8 -30 14 -34 13 -12 -2 -62 25 -62 33 0 5 -23 15 -51 23 -40 12 -54 13 -70 3
-17 -10 -22 -9 -32 3 -12 15 -53 18 -85 5 -8 -3 -21 0 -28 6 -11 9 -14 9 -14
0z m-25 -91 c3 -6 -1 -7 -9 -4 -18 7 -21 14 -7 14 6 0 13 -4 16 -10z"/>
<path d="M3227 4043 c-3 -5 4 -15 16 -23 21 -12 21 -12 7 6 -8 10 -15 20 -16
22 -1 2 -4 -1 -7 -5z"/>
<path d="M3266 3550 c-21 -11 -44 -24 -50 -30 -7 -5 -16 -7 -19 -3 -4 3 -7 1
-7 -7 0 -28 100 13 114 48 6 15 9 15 -38 -8z"/>
<path d="M825 2970 c3 -5 8 -10 11 -10 2 0 4 5 4 10 0 6 -5 10 -11 10 -5 0 -7
-4 -4 -10z"/>
<path d="M855 2970 c-3 -5 -2 -10 4 -10 5 0 18 -3 28 -7 16 -6 16 -5 4 10 -15
19 -27 22 -36 7z"/>
<path d="M930 2941 c0 -11 35 -25 68 -26 35 -1 26 13 -15 24 -47 13 -53 13
-53 2z"/>
</g>
</svg>
